#Comment line ignore any data following # character 
#Hierarchical Translation and Rotation (.htr) file 
[Header]	
#Header keywords are followed by a single value 
FileType HTR		#Single word string
DataType HTRS		#Translation followed by rotation and scale data
FileVersion 1		#integer
NumSegments 84		#integer
NumFrames 2		#integer
DataFrameRate 30		#integer, data frame rate in this file
EulerRotationOrder ZYX
CalibrationUnits mm
RotationUnits Degrees
GlobalAxisofGravity Y
BoneLengthAxis Y
ScaleFactor 1.00
[SegmentNames&Hierarchy]
#CHILD	PARENT
MASTER GLOBAL
root MASTER
chest root
L_mid_tent01 root
R_mid_tent01 root
spine01 root
Bip01_Neck chest
L_humerus chest
R_humerus chest
weapon_bone chest
Bip01_Head Bip01_Neck
eye_left_bone Bip01_Head
eye_right_bone Bip01_Head
L_forearm L_humerus
L_front_hand L_forearm
L_weapon_bone L_forearm
L_front_hand01_01 L_front_hand
L_front_hand02_01 L_front_hand
L_front_hand03_01 L_front_hand
L_front_hand01_02 L_front_hand01_01
L_front_hand02_02 L_front_hand02_01
L_front_hand03_02 L_front_hand03_01
R_forearm R_humerus
R_front_hand R_forearm
R_weapon_bone R_forearm
R_front_hand01_01 R_front_hand
R_front_hand02_01 R_front_hand
R_front_hand03_01 R_front_hand
R_front_hand01_02 R_front_hand01_01
R_front_hand02_02 R_front_hand02_01
R_front_hand03_02 R_front_hand03_01
null_rope01_connect L_mid_tent01
Rope1_Seg01 null_rope01_connect
Rope1_Seg02 Rope1_Seg01
Rope1_Seg03 Rope1_Seg02
Rope1_Seg04 Rope1_Seg03
Rope1_Seg05 Rope1_Seg04
Rope1_Seg06 Rope1_Seg05
Rope1_Seg07 Rope1_Seg06
Rope1_Seg09 Rope1_Seg07
L_mid_hand01 Rope1_Seg09
L_mid_hand02 Rope1_Seg09
L_mid_hand03 Rope1_Seg09
null_rope02_connect R_mid_tent01
Rope2_Seg01 null_rope02_connect
Rope2_Seg02 Rope2_Seg01
Rope2_Seg03 Rope2_Seg02
Rope2_Seg04 Rope2_Seg03
Rope2_Seg05 Rope2_Seg04
Rope2_Seg06 Rope2_Seg05
Rope2_Seg07 Rope2_Seg06
Rope2_Seg09 Rope2_Seg07
R_mid_hand01 Rope2_Seg09
R_mid_hand02 Rope2_Seg09
R_mid_hand03 Rope2_Seg09
spine02 spine01
spine03 spine02
pelvis spine03
null_rope03_connect pelvis
null_rope04_connect pelvis
Rope3_Seg01 null_rope03_connect
Rope3_Seg02 Rope3_Seg01
Rope3_Seg03 Rope3_Seg02
Rope3_Seg04 Rope3_Seg03
Rope3_Seg05 Rope3_Seg04
Rope3_Seg06 Rope3_Seg05
Rope3_Seg07 Rope3_Seg06
Rope3_Seg08 Rope3_Seg07
Rope3_Seg09 Rope3_Seg08
R_rear_hand01 Rope3_Seg09
R_rear_hand02 Rope3_Seg09
R_rear_hand03 Rope3_Seg09
Rope4_Seg01 null_rope04_connect
Rope4_Seg02 Rope4_Seg01
Rope4_Seg03 Rope4_Seg02
Rope4_Seg04 Rope4_Seg03
Rope4_Seg05 Rope4_Seg04
Rope4_Seg06 Rope4_Seg05
Rope4_Seg07 Rope4_Seg06
Rope4_Seg08 Rope4_Seg07
Rope4_Seg09 Rope4_Seg08
L_rear_hand01 Rope4_Seg09
L_rear_hand02 Rope4_Seg09
L_rear_hand03 Rope4_Seg09
[BasePosition]
#SegmentName Tx, Ty, Tz, Rx, Ry, Rz, BoneLength
MASTER 0.000000 0.000000 0.000000 -90.000000 0.000000 0.000000 10.000000 
root 0.000000 0.000000 0.000000 0.000000 0.000000 0.000000 10.000000 
chest 0.000000 0.000000 0.000000 0.000000 0.000000 0.000000 10.000000 
L_mid_tent01 0.000000 0.000000 0.000000 0.000000 0.000000 0.000000 10.000000 
R_mid_tent01 0.000000 0.000000 0.000000 0.000000 0.000000 0.000000 10.000000 
spine01 0.000000 0.000000 0.000000 0.000000 0.000000 0.000000 10.000000 
Bip01_Neck 0.000000 0.000000 0.000000 0.000000 0.000000 0.000000 10.000000 
L_humerus 0.000000 0.000000 0.000000 0.000000 0.000000 0.000000 10.000000 
R_humerus 0.000000 0.000000 0.000000 0.000000 0.000000 0.000000 10.000000 
weapon_bone 0.000000 0.000000 0.000000 0.000000 0.000000 0.000000 10.000000 
Bip01_Head 0.000000 0.000000 0.000000 0.000000 0.000000 0.000000 10.000000 
eye_left_bone 0.000000 0.000000 0.000000 0.000000 0.000000 0.000000 10.000000 
eye_right_bone 0.000000 0.000000 0.000000 0.000000 0.000000 0.000000 10.000000 
L_forearm 0.000000 0.000000 0.000000 0.000000 0.000000 0.000000 10.000000 
L_front_hand 0.000000 0.000000 0.000000 0.000000 0.000000 0.000000 10.000000 
L_weapon_bone 0.000000 0.000000 0.000000 0.000000 0.000000 0.000000 10.000000 
L_front_hand01_01 0.000000 0.000000 0.000000 0.000000 0.000000 0.000000 10.000000 
L_front_hand02_01 0.000000 0.000000 0.000000 0.000000 0.000000 0.000000 10.000000 
L_front_hand03_01 0.000000 0.000000 0.000000 0.000000 0.000000 0.000000 10.000000 
L_front_hand01_02 0.000000 0.000000 0.000000 0.000000 0.000000 0.000000 10.000000 
L_front_hand02_02 0.000000 0.000000 0.000000 0.000000 0.000000 0.000000 10.000000 
L_front_hand03_02 0.000000 0.000000 0.000000 0.000000 0.000000 0.000000 10.000000 
R_forearm 0.000000 0.000000 0.000000 0.000000 0.000000 0.000000 10.000000 
R_front_hand 0.000000 0.000000 0.000000 0.000000 0.000000 0.000000 10.000000 
R_weapon_bone 0.000000 0.000000 0.000000 0.000000 0.000000 0.000000 10.000000 
R_front_hand01_01 0.000000 0.000000 0.000000 0.000000 0.000000 0.000000 10.000000 
R_front_hand02_01 0.000000 0.000000 0.000000 0.000000 0.000000 0.000000 10.000000 
R_front_hand03_01 0.000000 0.000000 0.000000 0.000000 0.000000 0.000000 10.000000 
R_front_hand01_02 0.000000 0.000000 0.000000 0.000000 0.000000 0.000000 10.000000 
R_front_hand02_02 0.000000 0.000000 0.000000 0.000000 0.000000 0.000000 10.000000 
R_front_hand03_02 0.000000 0.000000 0.000000 0.000000 0.000000 0.000000 10.000000 
null_rope01_connect 0.000000 0.000000 0.000000 0.000000 0.000000 0.000000 10.000000 
Rope1_Seg01 0.000000 0.000000 0.000000 0.000000 0.000000 0.000000 10.000000 
Rope1_Seg02 0.000000 0.000000 0.000000 0.000000 0.000000 0.000000 10.000000 
Rope1_Seg03 0.000000 0.000000 0.000000 0.000000 0.000000 0.000000 10.000000 
Rope1_Seg04 0.000000 0.000000 0.000000 0.000000 0.000000 0.000000 10.000000 
Rope1_Seg05 0.000000 0.000000 0.000000 0.000000 0.000000 0.000000 10.000000 
Rope1_Seg06 0.000000 0.000000 0.000000 0.000000 0.000000 0.000000 10.000000 
Rope1_Seg07 0.000000 0.000000 0.000000 0.000000 0.000000 0.000000 10.000000 
Rope1_Seg09 0.000000 0.000000 0.000000 0.000000 0.000000 0.000000 10.000000 
L_mid_hand01 0.000000 0.000000 0.000000 0.000000 0.000000 0.000000 10.000000 
L_mid_hand02 0.000000 0.000000 0.000000 0.000000 0.000000 0.000000 10.000000 
L_mid_hand03 0.000000 0.000000 0.000000 0.000000 0.000000 0.000000 10.000000 
null_rope02_connect 0.000000 0.000000 0.000000 0.000000 0.000000 0.000000 10.000000 
Rope2_Seg01 0.000000 0.000000 0.000000 0.000000 0.000000 0.000000 10.000000 
Rope2_Seg02 0.000000 0.000000 0.000000 0.000000 0.000000 0.000000 10.000000 
Rope2_Seg03 0.000000 0.000000 0.000000 0.000000 0.000000 0.000000 10.000000 
Rope2_Seg04 0.000000 0.000000 0.000000 0.000000 0.000000 0.000000 10.000000 
Rope2_Seg05 0.000000 0.000000 0.000000 0.000000 0.000000 0.000000 10.000000 
Rope2_Seg06 0.000000 0.000000 0.000000 0.000000 0.000000 0.000000 10.000000 
Rope2_Seg07 0.000000 0.000000 0.000000 0.000000 0.000000 0.000000 10.000000 
Rope2_Seg09 0.000000 0.000000 0.000000 0.000000 0.000000 0.000000 10.000000 
R_mid_hand01 0.000000 0.000000 0.000000 0.000000 0.000000 0.000000 10.000000 
R_mid_hand02 0.000000 0.000000 0.000000 0.000000 0.000000 0.000000 10.000000 
R_mid_hand03 0.000000 0.000000 0.000000 0.000000 0.000000 0.000000 10.000000 
spine02 0.000000 0.000000 0.000000 0.000000 0.000000 0.000000 10.000000 
spine03 0.000000 0.000000 0.000000 0.000000 0.000000 0.000000 10.000000 
pelvis 0.000000 0.000000 0.000000 0.000000 0.000000 0.000000 10.000000 
null_rope03_connect 0.000000 0.000000 0.000000 0.000000 0.000000 0.000000 10.000000 
null_rope04_connect 0.000000 0.000000 0.000000 0.000000 0.000000 0.000000 10.000000 
Rope3_Seg01 0.000000 0.000000 0.000000 0.000000 0.000000 0.000000 10.000000 
Rope3_Seg02 0.000000 0.000000 0.000000 0.000000 0.000000 0.000000 10.000000 
Rope3_Seg03 0.000000 0.000000 0.000000 0.000000 0.000000 0.000000 10.000000 
Rope3_Seg04 0.000000 0.000000 0.000000 0.000000 0.000000 0.000000 10.000000 
Rope3_Seg05 0.000000 0.000000 0.000000 0.000000 0.000000 0.000000 10.000000 
Rope3_Seg06 0.000000 0.000000 0.000000 0.000000 0.000000 0.000000 10.000000 
Rope3_Seg07 0.000000 0.000000 0.000000 0.000000 0.000000 0.000000 10.000000 
Rope3_Seg08 0.000000 0.000000 0.000000 0.000000 0.000000 0.000000 10.000000 
Rope3_Seg09 0.000000 0.000000 0.000000 0.000000 0.000000 0.000000 10.000000 
R_rear_hand01 0.000000 0.000000 0.000000 0.000000 0.000000 0.000000 10.000000 
R_rear_hand02 0.000000 0.000000 0.000000 0.000000 0.000000 0.000000 10.000000 
R_rear_hand03 0.000000 0.000000 0.000000 0.000000 0.000000 0.000000 10.000000 
Rope4_Seg01 0.000000 0.000000 0.000000 0.000000 0.000000 0.000000 10.000000 
Rope4_Seg02 0.000000 0.000000 0.000000 0.000000 0.000000 0.000000 10.000000 
Rope4_Seg03 0.000000 0.000000 0.000000 0.000000 0.000000 0.000000 10.000000 
Rope4_Seg04 0.000000 0.000000 0.000000 0.000000 0.000000 0.000000 10.000000 
Rope4_Seg05 0.000000 0.000000 0.000000 0.000000 0.000000 0.000000 10.000000 
Rope4_Seg06 0.000000 0.000000 0.000000 0.000000 0.000000 0.000000 10.000000 
Rope4_Seg07 0.000000 0.000000 0.000000 0.000000 0.000000 0.000000 10.000000 
Rope4_Seg08 0.000000 0.000000 0.000000 0.000000 0.000000 0.000000 10.000000 
Rope4_Seg09 0.000000 0.000000 0.000000 0.000000 0.000000 0.000000 10.000000 
L_rear_hand01 0.000000 0.000000 0.000000 0.000000 0.000000 0.000000 10.000000 
L_rear_hand02 0.000000 0.000000 0.000000 0.000000 0.000000 0.000000 10.000000 
L_rear_hand03 0.000000 0.000000 0.000000 0.000000 0.000000 0.000000 10.000000 
#Beginning of Data. Separated by tabs
#Fr	Tx	Ty	Tz	Rx	Ry	Rz	SF
[MASTER]
67 -0.000074 554.566467 0.000000 0.001660 0.001660 0.001660 554.566467
68 -0.000074 554.566467 0.000000 0.001660 0.001660 0.001660 554.566467
[root]
67 -310.305328 331.269928 976.895813 -96.043457 -23.757471 -86.547005 1077.197632
68 -309.601929 334.437836 977.249268 -96.034653 -23.769299 -86.732460 1078.294067
[chest]
67 -84.512650 -34.090519 0.000000 -1.467487 -5.795671 178.888962 91.129311
68 -84.512650 -34.090519 0.000000 0.340816 -5.015252 178.923996 91.129311
[L_mid_tent01]
67 27.766607 21.909828 -252.920059 11.922128 23.718685 80.770027 255.381241
68 27.764015 21.911314 -252.903366 11.846130 23.411127 80.648613 255.364563
[R_mid_tent01]
67 23.228794 24.509907 226.238495 154.957596 -26.980494 80.846283 228.744751
68 23.228794 24.509907 226.238495 154.955368 -27.320908 80.917885 228.744751
[spine01]
67 -0.361383 -0.195265 0.000000 0.001869 0.001420 15.534141 0.410763
68 -0.361383 -0.195265 0.000000 0.001869 0.001420 15.534141 0.410763
[Bip01_Neck]
67 165.484543 71.581718 0.000119 175.896118 1.177290 24.871183 180.302734
68 165.484543 71.581718 0.000119 175.896118 1.177290 24.871183 180.302734
[L_humerus]
67 -13.983130 -135.272980 -120.471481 175.309540 -3.017026 -145.884567 181.680161
68 -13.983130 -135.272980 -120.471481 175.093033 -2.920976 -144.880264 181.680161
[R_humerus]
67 -13.983309 -135.273102 125.287651 -169.989273 -13.058911 -100.320610 184.909012
68 -13.983309 -135.273102 125.287651 -170.459747 -14.061118 -99.612305 184.909012
[weapon_bone]
67 235.964890 -300.705902 0.000000 0.000000 -89.951546 -128.212341 382.234833
68 235.964890 -300.705902 0.000000 0.000000 -89.951546 -128.212341 382.234833
[Bip01_Head]
67 183.295349 139.104614 12.296164 39.257614 8.495110 -47.382320 230.431061
68 183.295410 139.105682 12.296231 39.257614 8.495108 -47.382317 230.431747
[eye_left_bone]
67 -24.626970 125.451866 -64.772606 0.000000 -90.000000 -99.840431 143.318359
68 -24.626970 125.451866 -64.772606 0.000000 -90.000000 -99.840431 143.318359
[eye_right_bone]
67 -24.626970 125.451866 64.327362 0.000000 -89.972023 80.159386 143.117676
68 -24.626970 125.451866 64.327362 0.000000 -89.960434 80.159386 143.117676
[L_forearm]
67 322.776093 0.000000 -0.000119 0.000120 -0.002344 -95.856323 322.776093
68 322.776093 0.000000 -0.000119 0.000116 -0.002344 -95.665588 322.776093
[L_front_hand]
67 241.149185 -0.042021 -3.300071 -179.531464 -2.219686 -3.323799 241.171753
68 241.149185 -0.042021 -3.300071 -179.520920 -2.218343 -3.612688 241.171753
[L_weapon_bone]
67 156.183838 0.000000 0.000000 0.000014 0.000007 0.000001 156.183838
68 156.183838 0.000000 0.000000 0.000014 0.000007 0.000001 156.183838
[L_front_hand01_01]
67 86.095154 20.947098 -0.655860 -0.366594 -0.477154 75.385574 88.609184
68 86.095154 20.947098 -0.655860 -0.366594 -0.477154 75.385574 88.609184
[L_front_hand02_01]
67 86.935165 -11.437475 24.513514 154.403519 -59.888931 -61.371990 91.046425
68 86.935165 -11.437475 24.513514 154.403519 -59.888931 -61.371990 91.046425
[L_front_hand03_01]
67 86.637497 -14.123976 -20.424902 -153.913849 58.118122 -62.702866 90.126129
68 86.637497 -14.123976 -20.424902 -153.913849 58.118122 -62.702866 90.126129
[L_front_hand01_02]
67 71.020905 -0.000179 0.000030 0.000334 -0.002323 -106.379684 71.020905
68 71.020905 -0.000179 0.000030 0.000334 -0.002323 -106.379684 71.020905
[L_front_hand02_02]
67 71.020927 -0.000119 0.000060 0.000334 -0.002323 -106.379684 71.020927
68 71.020927 -0.000119 0.000060 0.000334 -0.002323 -106.379684 71.020927
[L_front_hand03_02]
67 71.020905 -0.000060 0.000060 0.000334 -0.002323 -106.379684 71.020905
68 71.020905 -0.000060 0.000060 0.000334 -0.002323 -106.379684 71.020905
[R_forearm]
67 322.776428 -0.000060 0.000030 0.211559 0.031137 -98.848007 322.776428
68 322.776428 -0.000060 0.000030 0.211638 0.030422 -98.682915 322.776428
[R_front_hand]
67 238.847015 -0.006795 2.210259 -116.534431 0.789245 -51.441452 238.857239
68 238.847015 -0.006795 2.210259 -116.534447 0.789241 -51.441441 238.857239
[R_weapon_bone]
67 155.664093 0.002503 -0.000030 0.003487 0.001180 -90.988930 155.664078
68 155.664093 0.002503 -0.000030 0.003487 0.001180 -90.988930 155.664078
[R_front_hand01_01]
67 87.624611 14.231146 22.918642 -154.235291 -59.834732 61.282520 91.683487
68 87.624611 14.231146 22.918642 -154.021713 -59.777203 61.033752 91.683487
[R_front_hand02_01]
67 89.356956 14.367283 -19.491137 154.227905 58.191696 63.308914 92.579636
68 89.356956 14.367283 -19.491137 154.030899 58.132465 63.072414 92.579636
[R_front_hand03_01]
67 87.286232 -22.307278 -0.143439 0.161207 -0.423530 -75.511223 90.091743
68 87.286232 -22.307278 -0.143439 0.156780 -0.426751 -75.373657 90.091743
[R_front_hand01_02]
67 71.020905 0.000060 0.000119 0.002324 -0.000330 106.153015 71.020905
68 71.020905 0.000060 0.000119 0.002324 -0.000326 105.985863 71.020905
[R_front_hand02_02]
67 71.020844 -0.000030 -0.000119 0.002324 -0.000330 106.153015 71.020836
68 71.020844 -0.000030 -0.000119 0.002324 -0.000326 105.985863 71.020836
[R_front_hand03_02]
67 71.020905 0.000000 0.000030 0.002324 -0.000330 106.153015 71.020905
68 71.020905 0.000000 0.000030 0.002324 -0.000326 105.985863 71.020905
[null_rope01_connect]
67 328.732483 0.000000 -0.000238 -129.044846 -61.349026 165.958832 328.732483
68 328.732483 0.000000 -0.000238 -128.689987 -61.525288 165.644943 328.732483
[Rope1_Seg01]
67 6.594935 -4.384395 -1.084432 -9.355806 3.962932 -171.638641 7.993252
68 6.608654 -4.372797 -1.053242 -9.431974 4.088638 -171.984482 7.994059
[Rope1_Seg02]
67 139.999863 -0.000179 0.000000 2.180964 12.455894 -5.265805 139.999863
68 139.999863 -0.000179 0.000000 2.148231 12.284706 -5.141653 139.999863
[Rope1_Seg03]
67 139.999924 0.000060 -0.000060 -4.453612 33.133167 -17.482157 139.999924
68 139.999924 0.000060 -0.000060 -4.215401 32.721176 -17.016750 139.999924
[Rope1_Seg04]
67 139.999924 -0.000060 -0.000119 -21.253531 37.327507 -20.449675 139.999924
68 139.999924 -0.000060 -0.000119 -21.491272 37.748871 -20.564236 139.999924
[Rope1_Seg05]
67 139.999832 0.000119 -0.000060 -18.507139 16.796799 -6.064641 139.999832
68 139.999832 0.000119 -0.000060 -18.786455 16.998569 -6.055333 139.999832
[Rope1_Seg06]
67 139.999954 0.000119 -0.000060 -66.721237 24.099392 -3.441733 139.999954
68 139.999954 0.000119 -0.000060 -65.980042 24.029823 -3.254660 139.999954
[Rope1_Seg07]
67 139.999985 0.000060 0.000000 -35.267185 8.987664 17.087942 139.999985
68 139.999985 0.000060 0.000000 -35.085499 9.003257 16.927824 139.999985
[Rope1_Seg09]
67 121.602913 0.000119 -0.000089 -89.793175 -1.359789 0.847147 121.602913
68 121.602913 0.000119 -0.000089 -89.793175 -1.359789 0.847147 121.602913
[L_mid_hand01]
67 103.859421 1.038730 8.195221 116.294914 -23.111713 -31.758034 104.187431
68 103.859421 1.038730 8.195221 116.294914 -23.111713 -31.758034 104.187431
[L_mid_hand02]
67 105.572853 -4.139662 -10.864139 -144.219833 17.447470 -35.360519 106.211075
68 105.572853 -4.139662 -10.864139 -144.219833 17.447468 -35.360519 106.211075
[L_mid_hand03]
67 104.641464 17.579376 -3.913581 -17.830780 17.153103 31.982925 106.179977
68 104.641464 17.579376 -3.913581 -17.830780 17.153103 31.982925 106.179977
[null_rope02_connect]
67 328.732849 0.000179 -0.000119 -93.432747 53.532471 49.220707 328.732849
68 328.732849 0.000179 -0.000119 -93.911057 53.508572 48.728222 328.732849
[Rope2_Seg01]
67 0.000032 0.000220 0.000000 42.952057 30.021940 -27.285662 0.000222
68 0.000032 0.000221 0.000000 42.612396 29.995096 -27.584055 0.000223
[Rope2_Seg02]
67 139.999741 -0.000060 -0.000119 6.929474 6.248632 6.832018 139.999756
68 139.999741 -0.000060 -0.000119 7.029238 6.266124 6.925925 139.999756
[Rope2_Seg03]
67 140.000107 0.000030 0.000000 10.442748 12.886709 11.401278 140.000107
68 140.000107 0.000030 0.000000 10.639600 13.020232 11.603200 140.000107
[Rope2_Seg04]
67 139.999802 0.000000 -0.000060 11.463636 28.856791 16.609571 139.999802
68 139.999802 0.000000 -0.000060 11.608514 29.134312 16.842497 139.999802
[Rope2_Seg05]
67 139.999985 -0.000060 0.000119 0.995339 22.273081 11.007753 139.999985
68 139.999985 -0.000060 0.000119 0.954855 21.952896 11.012993 139.999985
[Rope2_Seg06]
67 139.999893 -0.000030 -0.000119 -2.126770 5.482321 11.913589 139.999893
68 139.999893 -0.000030 -0.000119 -2.097841 5.449388 11.912866 139.999893
[Rope2_Seg07]
67 139.999893 0.000060 -0.000060 -1.978346 4.126400 11.845876 139.999893
68 139.999893 0.000060 -0.000060 -1.950743 4.377511 11.619516 139.999893
[Rope2_Seg09]
67 121.338966 0.000089 -0.000060 33.793236 -1.359788 -0.847141 121.338966
68 121.338966 0.000089 -0.000060 33.793236 -1.359788 -0.847141 121.338966
[R_mid_hand01]
67 104.680779 11.144459 -10.335981 -41.523792 25.424656 28.595957 105.778534
68 104.680779 11.144459 -10.335981 -41.523792 25.424656 28.595957 105.778534
[R_mid_hand02]
67 104.070427 2.443552 8.231699 72.847389 -32.746803 10.013901 104.424065
68 104.070427 2.443552 8.231699 72.847389 -32.746803 10.013901 104.424065
[R_mid_hand03]
67 106.028137 -11.221827 -5.996406 -167.901306 10.259192 -37.009720 106.788818
68 106.028137 -11.221827 -5.996406 -167.901306 10.259192 -37.009720 106.788818
[spine02]
67 129.756927 0.001550 0.000119 -0.245322 -4.052060 -4.355547 129.756927
68 129.756927 0.001550 0.000119 -0.245322 -4.052060 -4.355547 129.756927
[spine03]
67 78.613846 0.087372 -4.898873 0.369659 4.260735 -4.885721 78.766380
68 78.613846 0.087372 -4.898873 0.369659 4.260735 -4.885721 78.766380
[pelvis]
67 169.435242 0.051022 0.000000 -0.010007 -0.191417 -1.897554 169.435257
68 169.435242 0.051022 0.000000 -0.010007 -0.191417 -1.897554 169.435257
[null_rope03_connect]
67 -1.257226 -2.466202 137.391083 167.417542 -84.783798 -57.893696 137.418976
68 -1.257226 -2.466202 137.391083 169.266357 -84.826500 -59.739532 137.418976
[null_rope04_connect]
67 -1.259640 -2.480268 -137.844437 167.417542 -84.783798 -57.893696 137.872513
68 -1.259640 -2.480268 -137.844437 169.266357 -84.826500 -59.739532 137.872513
[Rope3_Seg01]
67 0.000000 0.000000 0.000000 -36.364262 -38.227104 -5.456172 0.000000
68 0.000000 0.000000 0.000000 -36.021404 -38.270782 -5.778307 0.000000
[Rope3_Seg02]
67 139.999924 -0.000119 0.000060 -2.356191 -1.231497 4.305502 139.999924
68 139.999924 -0.000119 0.000060 -2.339212 -1.215399 4.317072 139.999924
[Rope3_Seg03]
67 139.999924 -0.000119 0.000119 -4.231532 -2.072973 6.317626 139.999924
68 139.999924 -0.000119 0.000119 -4.211991 -2.051909 6.335717 139.999924
[Rope3_Seg04]
67 139.999924 0.000119 0.000000 -8.937527 -4.050986 9.939707 139.999924
68 139.999924 0.000119 0.000000 -8.924129 -4.019730 9.983941 139.999924
[Rope3_Seg05]
67 139.999924 -0.000238 0.000060 -28.805254 -12.327780 20.813309 139.999924
68 139.999924 -0.000238 0.000060 -28.928366 -12.277503 20.950096 139.999924
[Rope3_Seg06]
67 139.999893 -0.000119 -0.000060 -25.444677 -17.998692 12.170171 139.999893
68 139.999893 -0.000119 -0.000060 -25.616554 -18.015533 12.253545 139.999893
[Rope3_Seg07]
67 139.999771 0.000060 -0.000119 -2.226296 -2.196874 1.480165 139.999771
68 139.999771 0.000060 -0.000119 -2.274479 -2.236694 1.487839 139.999771
[Rope3_Seg08]
67 139.999985 -0.000060 0.000000 -3.256404 -3.728580 1.261121 139.999985
68 139.999985 -0.000060 0.000000 -3.292302 -3.757867 1.263153 139.999985
[Rope3_Seg09]
67 90.185997 -0.000179 -0.000060 89.793228 -1.359877 -0.847183 90.185997
68 90.185997 -0.000179 -0.000060 89.793228 -1.359877 -0.847183 90.185997
[R_rear_hand01]
67 103.366196 -6.073594 -10.757982 -161.551193 16.666374 -30.088671 104.101845
68 103.366196 -6.073594 -10.757982 -161.551193 16.666374 -30.088671 104.101845
[R_rear_hand02]
67 100.509819 12.039542 -7.992327 -34.280552 19.289745 28.875523 101.543350
68 100.509819 12.039542 -7.992327 -34.280552 19.289745 28.875523 101.543350
[R_rear_hand03]
67 101.539970 5.215704 5.435467 83.366440 -30.933914 7.284830 101.819031
68 101.539970 5.215704 5.435467 83.366440 -30.933914 7.284830 101.819031
[Rope4_Seg01]
67 -0.000021 -0.000043 0.000085 -71.490173 -25.050125 -156.100052 0.000098
68 -0.000021 -0.000042 0.000084 -71.929314 -24.933201 -155.671082 0.000097
[Rope4_Seg02]
67 139.999985 0.000060 0.000119 9.126141 11.984858 -6.666423 139.999985
68 139.999985 0.000060 0.000119 9.041328 12.020271 -6.597353 139.999985
[Rope4_Seg03]
67 139.999924 0.000000 -0.000238 20.824480 17.853285 -14.938093 139.999924
68 139.999924 0.000000 -0.000238 20.838577 18.017309 -14.872037 139.999924
[Rope4_Seg04]
67 139.999985 0.000000 0.000119 22.391039 9.995409 -23.442833 139.999985
68 139.999985 0.000000 0.000119 22.605062 10.214626 -23.511139 139.999985
[Rope4_Seg05]
67 139.999802 -0.000060 -0.000119 11.231938 1.895899 -16.638506 139.999802
68 139.999802 -0.000060 -0.000119 11.302173 1.915754 -16.654877 139.999802
[Rope4_Seg06]
67 139.999924 0.000000 0.000060 11.589659 2.313121 -25.830761 139.999924
68 139.999924 0.000000 0.000060 11.667505 2.281555 -25.901440 139.999924
[Rope4_Seg07]
67 139.999802 0.000000 0.000000 6.147391 -3.163205 -28.253918 139.999802
68 139.999802 0.000000 0.000000 6.184794 -3.253087 -28.411356 139.999802
[Rope4_Seg08]
67 139.999924 0.000000 0.000119 -1.140245 -3.045489 -12.507572 139.999924
68 139.999924 0.000000 0.000119 -1.156804 -3.091277 -12.539787 139.999924
[Rope4_Seg09]
67 90.185791 0.000060 0.000060 -135.617828 2.228885 0.850567 90.185791
68 90.185791 0.000060 0.000060 -135.617828 2.228885 0.850567 90.185791
[L_rear_hand01]
67 101.696655 -8.392275 -7.654577 -34.454281 -18.946800 151.655121 102.329041
68 101.696655 -8.392275 -7.654577 -34.454281 -18.946800 151.655121 102.329041
[L_rear_hand02]
67 102.726799 -1.568258 5.773216 83.407906 30.330435 172.796509 102.900848
68 102.726799 -1.568258 5.773216 83.407906 30.330435 172.796509 102.900848
[L_rear_hand03]
67 104.552910 9.721220 -10.420293 -161.379868 -16.473232 -150.512238 105.519653
68 104.552910 9.721220 -10.420293 -161.379868 -16.473232 -150.512238 105.519653
